<?xml version="1.0" encoding="UTF-8" standalone="no"?>
<!-- Created with Inkscape (http://www.inkscape.org/) -->

<svg
   xmlns:dc="http://purl.org/dc/elements/1.1/"
   xmlns:cc="http://creativecommons.org/ns#"
   xmlns:rdf="http://www.w3.org/1999/02/22-rdf-syntax-ns#"
   xmlns:svg="http://www.w3.org/2000/svg"
   xmlns="http://www.w3.org/2000/svg"
   xmlns:sodipodi="http://sodipodi.sourceforge.net/DTD/sodipodi-0.dtd"
   xmlns:inkscape="http://www.inkscape.org/namespaces/inkscape"
   width="54.995804"
   height="33.00087"
   id="svg2"
   version="1.1"
   inkscape:version="0.48.5 r10040"
   sodipodi:docname="symbolRec.svg"
   inkscape:export-filename="/home/christopher/skinelchi/prepared/Crec_on.png"
   inkscape:export-xdpi="180"
   inkscape:export-ydpi="180">
  <defs
     id="defs4" />
  <sodipodi:namedview
     id="base"
     pagecolor="#ffffff"
     bordercolor="#666666"
     borderopacity="1"
     inkscape:pageopacity="0"
     inkscape:pageshadow="2"
     inkscape:zoom="3.959798"
     inkscape:cx="111.55561"
     inkscape:cy="-9.6058672"
     inkscape:document-units="px"
     inkscape:current-layer="layer1"
     showgrid="false"
     fit-margin-top="5.16"
     fit-margin-left="8.21"
     fit-margin-right="8.21"
     fit-margin-bottom="5.16"
     inkscape:window-width="1680"
     inkscape:window-height="992"
     inkscape:window-x="-2"
     inkscape:window-y="-3"
     inkscape:window-maximized="1"
     borderlayer="true"
     inkscape:showpageshadow="false"
     showborder="true" />
  <metadata
     id="metadata7">
    <rdf:RDF>
      <cc:Work
         rdf:about="">
        <dc:format>image/svg+xml</dc:format>
        <dc:type
           rdf:resource="http://purl.org/dc/dcmitype/StillImage" />
        <dc:title />
      </cc:Work>
    </rdf:RDF>
  </metadata>
  <g
     inkscape:label="Ebene 1"
     inkscape:groupmode="layer"
     id="layer1"
     transform="translate(-355.75373,-703.76629)">
    <rect
       style="fill:#bb1111;fill-opacity:1"
       id="rect2984"
       width="104.04571"
       height="53.538086"
       x="-21.718279"
       y="-8.4153843"
       transform="translate(355.75373,703.76629)" />
    <g
       transform="scale(0.77388491,1.2921818)"
       id="text2996"
       style="fill:#000000;fill-opacity:1">
      <path
         d="m 478.5226,556.43472 c 0.91406,10e-6 1.5675,-0.16996 1.96034,-0.50992 0.40036,-0.33993 0.60055,-0.89895 0.60056,-1.67705 -1e-5,-0.77052 -0.2002,-1.32198 -0.60056,-1.65439 -0.39284,-0.33237 -1.04628,-0.49857 -1.96034,-0.49858 l -1.83569,0 0,4.33994 1.83569,0 m -1.83569,3.01416 0,6.40226 -4.3626,0 0,-16.91783 6.66288,0 c 2.2285,2e-5 3.86023,0.37396 4.89518,1.12181 1.04247,0.74789 1.56372,1.93014 1.56373,3.54674 -10e-6,1.11805 -0.27197,2.03589 -0.81586,2.75354 -0.53637,0.71766 -1.34845,1.24646 -2.43626,1.5864 0.59678,0.13598 1.12936,0.44571 1.59773,0.92918 0.47591,0.47592 0.95561,1.20113 1.4391,2.17563 l 2.36826,4.80453 -4.64588,0 -2.06232,-4.20396 c -0.4155,-0.84608 -0.83854,-1.42398 -1.26912,-1.73371 -0.42305,-0.30972 -0.98962,-0.46459 -1.69972,-0.46459 l -1.23512,0"
         id="path2986"
         inkscape:connector-curvature="0"
         style="fill:#000000;fill-opacity:1" />
      <path
         d="m 490.18264,548.93331 11.77336,0 0,3.29745 -7.41076,0 0,3.15014 6.96883,0 0,3.29744 -6.96883,0 0,3.87535 7.66005,0 0,3.29745 -12.02265,0 0,-16.91783"
         id="path2988"
         inkscape:connector-curvature="0"
         style="fill:#000000;fill-opacity:1" />
      <path
         d="m 519.46305,564.92196 c -0.80077,0.41548 -1.63551,0.72899 -2.50424,0.94051 -0.86876,0.21152 -1.77527,0.31728 -2.71955,0.31728 -2.81775,0 -5.05004,-0.78565 -6.69687,-2.35694 -1.64684,-1.57884 -2.47025,-3.7167 -2.47025,-6.41359 0,-2.70442 0.82341,-4.84228 2.47025,-6.41359 1.64683,-1.57883 3.87912,-2.36825 6.69687,-2.36827 0.94428,2e-5 1.85079,0.10578 2.71955,0.31728 0.86873,0.21154 1.70347,0.52504 2.50424,0.94051 l 0,3.50141 c -0.80832,-0.55145 -1.6053,-0.9556 -2.39093,-1.21246 -0.78566,-0.25683 -1.61285,-0.38525 -2.48158,-0.38527 -1.55619,2e-5 -2.77999,0.4986 -3.67138,1.49575 -0.89142,0.99718 -1.33712,2.37206 -1.33711,4.12464 -10e-6,1.74505 0.44569,3.11615 1.33711,4.11331 0.89139,0.99717 2.11519,1.49575 3.67138,1.49575 0.86873,0 1.69592,-0.12842 2.48158,-0.38527 0.78563,-0.25684 1.58261,-0.661 2.39093,-1.21246 l 0,3.50141"
         id="path2990"
         inkscape:connector-curvature="0"
         style="fill:#000000;fill-opacity:1" />
    </g>
  </g>
</svg>
