<?xml version="1.0" encoding="UTF-8" standalone="no"?>
<!-- Created with Inkscape (http://www.inkscape.org/) -->

<svg
   xmlns:dc="http://purl.org/dc/elements/1.1/"
   xmlns:cc="http://creativecommons.org/ns#"
   xmlns:rdf="http://www.w3.org/1999/02/22-rdf-syntax-ns#"
   xmlns:svg="http://www.w3.org/2000/svg"
   xmlns="http://www.w3.org/2000/svg"
   xmlns:sodipodi="http://sodipodi.sourceforge.net/DTD/sodipodi-0.dtd"
   xmlns:inkscape="http://www.inkscape.org/namespaces/inkscape"
   width="55"
   height="33"
   id="svg3842"
   version="1.1"
   inkscape:version="0.48.5 r10040"
   sodipodi:docname="Cencrypted.svg"
   inkscape:export-filename="/home/christopher/skinelchi/Cencrypted_off.png"
   inkscape:export-xdpi="90"
   inkscape:export-ydpi="90">
  <defs
     id="defs3844" />
  <sodipodi:namedview
     id="base"
     pagecolor="#ffffff"
     bordercolor="#666666"
     borderopacity="1.0"
     inkscape:pageopacity="0.0"
     inkscape:pageshadow="2"
     inkscape:zoom="11.313709"
     inkscape:cx="-4.7883596"
     inkscape:cy="17.847719"
     inkscape:document-units="px"
     inkscape:current-layer="layer1"
     showgrid="false"
     inkscape:window-width="1680"
     inkscape:window-height="995"
     inkscape:window-x="-2"
     inkscape:window-y="-3"
     inkscape:window-maximized="1" />
  <metadata
     id="metadata3847">
    <rdf:RDF>
      <cc:Work
         rdf:about="">
        <dc:format>image/svg+xml</dc:format>
        <dc:type
           rdf:resource="http://purl.org/dc/dcmitype/StillImage" />
        <dc:title />
      </cc:Work>
    </rdf:RDF>
  </metadata>
  <g
     inkscape:label="Ebene 1"
     inkscape:groupmode="layer"
     id="layer1"
     transform="translate(0,-1019.3622)">
    <path
       style="fill:#fcc024;fill-opacity:1"
       d="m 36.04538,1030.608 c -3.50846,0 -6.45401,1.7007 -7.375,4 l -16.9375,0 0,3 1,0 2,4 4,0 0,-1.9687 1.03125,-2.0313 8.90625,0 c 0.92099,2.2994 3.86654,4 7.375,4 4.24378,0 7.6875,-2.4633 7.6875,-5.5 0,-3.0367 -3.44372,-5.5 -7.6875,-5.5 z m -0.34375,2 c 2.21586,0 4.03125,1.5645 4.03125,3.5 0,1.9355 -1.81539,3.5313 -4.03125,3.5313 -2.21586,0 -4,-1.5958 -4,-3.5313 0,-1.9355 1.78414,-3.5 4,-3.5 z"
       id="path3868"
       inkscape:connector-curvature="0" />
    <rect
       y="1025.0686"
       x="8.1731873"
       height="22.017509"
       width="39.003304"
       id="rect2998"
       style="fill:none;stroke:#fcc024;stroke-opacity:1;stroke-width:3" />
    <path
       style="fill:none;stroke:#000000;stroke-width:1px;stroke-linecap:butt;stroke-linejoin:miter;stroke-opacity:1"
       d="M 344.30469,743.33875 z"
       id="path4420"
       inkscape:connector-curvature="0" />
  </g>
</svg>
