<?xml version="1.0" encoding="UTF-8" standalone="no"?>
<!-- Created with Inkscape (http://www.inkscape.org/) -->

<svg
   xmlns:dc="http://purl.org/dc/elements/1.1/"
   xmlns:cc="http://creativecommons.org/ns#"
   xmlns:rdf="http://www.w3.org/1999/02/22-rdf-syntax-ns#"
   xmlns:svg="http://www.w3.org/2000/svg"
   xmlns="http://www.w3.org/2000/svg"
   xmlns:sodipodi="http://sodipodi.sourceforge.net/DTD/sodipodi-0.dtd"
   xmlns:inkscape="http://www.inkscape.org/namespaces/inkscape"
   width="33"
   height="42"
   id="svg2"
   version="1.1"
   inkscape:version="0.48.5 r10040"
   sodipodi:docname="menuItemVps.svg">
  <defs
     id="defs4">
    <filter
       inkscape:label="Invert"
       x="0"
       y="0"
       width="1"
       height="1"
       inkscape:menu="Color"
       inkscape:menu-tooltip="Invert colors"
       color-interpolation-filters="sRGB"
       id="filter2996">
      <feColorMatrix
         type="saturate"
         values="1"
         result="fbSourceGraphic"
         id="feColorMatrix2998" />
      <feColorMatrix
         in="fbSourceGraphic"
         values="-1 0 0 0 1 0 -1 0 0 1 0 0 -1 0 1 0 0 0 1 0 "
         id="feColorMatrix3000" />
    </filter>
  </defs>
  <sodipodi:namedview
     id="base"
     pagecolor="#ffffff"
     bordercolor="#666666"
     borderopacity="1.0"
     inkscape:pageopacity="0.0"
     inkscape:pageshadow="2"
     inkscape:zoom="11.2"
     inkscape:cx="9.0978299"
     inkscape:cy="17.74229"
     inkscape:document-units="px"
     inkscape:current-layer="layer1"
     showgrid="false"
     inkscape:window-width="1680"
     inkscape:window-height="995"
     inkscape:window-x="-2"
     inkscape:window-y="-3"
     inkscape:window-maximized="1"
     fit-margin-top="0"
     fit-margin-left="0"
     fit-margin-right="0"
     fit-margin-bottom="0" />
  <metadata
     id="metadata7">
    <rdf:RDF>
      <cc:Work
         rdf:about="">
        <dc:format>image/svg+xml</dc:format>
        <dc:type
           rdf:resource="http://purl.org/dc/dcmitype/StillImage" />
        <dc:title />
      </cc:Work>
    </rdf:RDF>
  </metadata>
  <g
     inkscape:label="Ebene 1"
     inkscape:groupmode="layer"
     id="layer1"
     transform="translate(-372.07144,-679.93359)">
    <g
       transform="translate(372.07144,679.93359)"
       id="flowRoot3002" />
    <g
       transform="matrix(0.39258786,0,0,0.41152043,534.53302,701.16734)"
       id="flowRoot3010">
      <path
         d="m -405.86719,-51.57144 7.5586,0 7.73437,21.523438 7.71485,-21.523438 7.55859,0 -10.80078,29.160156 -8.96485,0 -10.80078,-29.160156"
         id="path3003"
         inkscape:connector-curvature="0"
         style="fill:#eeddcc;fill-opacity:1" />
    </g>
    <g
       transform="matrix(0.52156197,0,0,0.396643,600.98065,730.60159)"
       id="flowRoot3010-5"
       style="fill:#eeddcc;fill-opacity:1">
      <path
         d="m -382.09766,-50.653471 0,6.171875 c -1.60158,-0.716123 -3.16408,-1.256487 -4.6875,-1.621094 -1.52345,-0.364559 -2.96225,-0.546851 -4.3164,-0.546875 -1.79689,2.4e-5 -3.12501,0.24742 -3.98438,0.742188 -0.85938,0.494814 -1.28907,1.263043 -1.28906,2.304687 -10e-6,0.781271 0.28645,1.393249 0.85938,1.835938 0.58592,0.429706 1.64061,0.800799 3.16406,1.113281 l 3.20312,0.644531 c 3.24217,0.651059 5.54686,1.640641 6.91407,2.96875 1.36716,1.328138 2.05075,3.216157 2.05078,5.664063 -3e-5,3.216151 -0.95706,5.611982 -2.8711,7.1875 -1.90106,1.5625 -4.81121,2.343749 -8.73047,2.34375 -1.84897,-1e-6 -3.70443,-0.175782 -5.5664,-0.527344 -1.86199,-0.351562 -3.72397,-0.872395 -5.58594,-1.5625 l 0,-6.347656 c 1.86197,0.98959 3.65885,1.738287 5.39063,2.246093 1.74478,0.494797 3.42446,0.742193 5.03906,0.742188 1.64061,5e-6 2.89712,-0.273432 3.76953,-0.820313 0.87238,-0.546868 1.30857,-1.328118 1.30859,-2.34375 -2e-5,-0.911449 -0.2995,-1.614573 -0.89843,-2.109375 -0.58596,-0.494781 -1.76434,-0.937488 -3.53516,-1.328125 l -2.91016,-0.644531 c -2.91667,-0.624987 -5.05209,-1.62108 -6.40625,-2.988281 -1.34115,-1.367171 -2.01172,-3.209617 -2.01172,-5.527344 0,-2.903622 0.9375,-5.136693 2.8125,-6.699219 1.875,-1.562471 4.57031,-2.34372 8.08594,-2.34375 1.60155,3e-5 3.24868,0.123728 4.94141,0.371094 1.69269,0.234404 3.44399,0.592477 5.2539,1.074219"
         id="path3006"
         inkscape:connector-curvature="0"
         style="fill:#eeddcc;fill-opacity:1" />
    </g>
    <g
       transform="matrix(0.49991863,0,0,0.41152043,584.61834,716.53818)"
       id="flowRoot3010-3"
       style="fill:#eeddcc;fill-opacity:1">
      <path
         d="m -402.39062,-51.57144 12.48046,0 c 3.71092,2.9e-5 6.55597,0.826851 8.53516,2.480469 1.99216,1.64065 2.98825,3.984398 2.98828,7.03125 -3e-5,3.059912 -0.99612,5.416681 -2.98828,7.070312 -1.97919,1.640636 -4.82424,2.460948 -8.53516,2.460938 l -4.96093,0 0,10.117187 -7.51953,0 0,-29.160156 m 7.51953,5.449219 0,8.144531 4.16015,0 c 1.45832,1.6e-5 2.58462,-0.351546 3.37891,-1.054687 0.79425,-0.716129 1.19139,-1.725242 1.19141,-3.027344 -2e-5,-1.302062 -0.39716,-2.304666 -1.19141,-3.007813 -0.79429,-0.703101 -1.92059,-1.054663 -3.37891,-1.054687 l -4.16015,0"
         id="path3009"
         inkscape:connector-curvature="0"
         style="fill:#eeddcc;fill-opacity:1" />
    </g>
  </g>
</svg>
