<?xml version="1.0" encoding="UTF-8" standalone="no"?>
<!-- Created with Inkscape (http://www.inkscape.org/) -->

<svg
   xmlns:dc="http://purl.org/dc/elements/1.1/"
   xmlns:cc="http://creativecommons.org/ns#"
   xmlns:rdf="http://www.w3.org/1999/02/22-rdf-syntax-ns#"
   xmlns:svg="http://www.w3.org/2000/svg"
   xmlns="http://www.w3.org/2000/svg"
   xmlns:sodipodi="http://sodipodi.sourceforge.net/DTD/sodipodi-0.dtd"
   xmlns:inkscape="http://www.inkscape.org/namespaces/inkscape"
   width="51"
   height="38"
   id="svg2"
   version="1.1"
   inkscape:version="0.48.5 r10040"
   sodipodi:docname="volumeMuteYes.svg">
  <defs
     id="defs4" />
  <sodipodi:namedview
     id="base"
     pagecolor="#ffffff"
     bordercolor="#666666"
     borderopacity="1.0"
     inkscape:pageopacity="0.0"
     inkscape:pageshadow="2"
     inkscape:zoom="5.6568543"
     inkscape:cx="16.010486"
     inkscape:cy="31.891421"
     inkscape:document-units="px"
     inkscape:current-layer="layer1"
     showgrid="false"
     fit-margin-top="0"
     fit-margin-left="0"
     fit-margin-right="0"
     fit-margin-bottom="0"
     inkscape:window-width="1680"
     inkscape:window-height="995"
     inkscape:window-x="-2"
     inkscape:window-y="-3"
     inkscape:window-maximized="1" />
  <metadata
     id="metadata7">
    <rdf:RDF>
      <cc:Work
         rdf:about="">
        <dc:format>image/svg+xml</dc:format>
        <dc:type
           rdf:resource="http://purl.org/dc/dcmitype/StillImage" />
        <dc:title />
      </cc:Work>
    </rdf:RDF>
  </metadata>
  <g
     inkscape:label="Ebene 1"
     inkscape:groupmode="layer"
     id="layer1"
     transform="translate(-405.92856,-721.93359)">
    <path
       style="fill:#cc1111;fill-opacity:0.8"
       d="M 8.0625 0 L 27 18.9375 L 7.90625 38 L 13.65625 38 L 29.875 21.8125 L 46.0625 38 L 51 38 L 51 37.1875 L 32.75 18.9375 L 51 0.65625 L 51 0 L 45.90625 0 L 29.875 16.0625 L 13.8125 0 L 8.0625 0 z "
       transform="translate(405.92856,721.93359)"
       id="rect3073" />
    <path
       style="fill:#cc1111;fill-opacity:0.8"
       d="M 28.03125 0 L 20.03125 4.8125 L 23.78125 8.5625 L 28.0625 6 L 28.0625 12.84375 L 29.875 14.625 L 32 12.5 L 32 0 L 28.03125 0 z M 14.71875 8 L 8 12 L 0 12 L 0 26 L 8 26 L 14.5625 29.9375 L 18.3125 26.1875 L 12.96875 23 L 12.96875 15 L 18.4375 11.71875 L 14.71875 8 z M 4 15 L 9 15 L 9 23 L 4 23 L 4 15 z M 29.875 23.125 L 28.0625 24.9375 L 28.0625 32 L 23.625 29.375 L 19.875 33.125 L 28 38 L 32 38 L 32 25.28125 L 29.875 23.125 z "
       transform="translate(405.92856,721.93359)"
       id="rect3000" />
  </g>
</svg>
