<?xml version="1.0" encoding="UTF-8" standalone="no"?>
<!-- Created with Inkscape (http://www.inkscape.org/) -->

<svg
   xmlns:dc="http://purl.org/dc/elements/1.1/"
   xmlns:cc="http://creativecommons.org/ns#"
   xmlns:rdf="http://www.w3.org/1999/02/22-rdf-syntax-ns#"
   xmlns:svg="http://www.w3.org/2000/svg"
   xmlns="http://www.w3.org/2000/svg"
   xmlns:sodipodi="http://sodipodi.sourceforge.net/DTD/sodipodi-0.dtd"
   xmlns:inkscape="http://www.inkscape.org/namespaces/inkscape"
   width="54.995804"
   height="33.00087"
   id="svg2"
   version="1.1"
   inkscape:version="0.48.5 r10040"
   sodipodi:docname="channelVps.svg"
   inkscape:export-filename="/home/christopher/skinelchi/prepared/Cvps_on.png"
   inkscape:export-xdpi="180"
   inkscape:export-ydpi="180">
  <defs
     id="defs4" />
  <sodipodi:namedview
     id="base"
     pagecolor="#ffffff"
     bordercolor="#666666"
     borderopacity="1.0"
     inkscape:pageopacity="0.0"
     inkscape:pageshadow="2"
     inkscape:zoom="15.839192"
     inkscape:cx="21.39288"
     inkscape:cy="23.451514"
     inkscape:document-units="px"
     inkscape:current-layer="layer1"
     showgrid="false"
     fit-margin-top="5.16"
     fit-margin-left="8.21"
     fit-margin-right="8.21"
     fit-margin-bottom="5.16"
     inkscape:window-width="1680"
     inkscape:window-height="995"
     inkscape:window-x="-2"
     inkscape:window-y="-3"
     inkscape:window-maximized="1" />
  <metadata
     id="metadata7">
    <rdf:RDF>
      <cc:Work
         rdf:about="">
        <dc:format>image/svg+xml</dc:format>
        <dc:type
           rdf:resource="http://purl.org/dc/dcmitype/StillImage" />
        <dc:title />
      </cc:Work>
    </rdf:RDF>
  </metadata>
  <g
     inkscape:label="Ebene 1"
     inkscape:groupmode="layer"
     id="layer1"
     transform="translate(-355.75373,-703.76629)">
    <g
       transform="scale(0.77388491,1.2921818)"
       id="text2996"
       style="fill:#eecc22;fill-opacity:1">
      <path
         d="m 470.30731,548.93331 4.38527,0 4.48724,12.48724 4.47592,-12.48724 4.38526,0 -6.26628,16.91783 -5.20113,0 -6.26628,-16.91783"
         id="path2985"
         inkscape:connector-curvature="0"
         style="fill:#eecc22;fill-opacity:1" />
      <path
         d="m 490.27329,548.93331 7.24078,0 c 2.15296,2e-5 3.80357,0.47972 4.95184,1.43909 1.15579,0.95186 1.73369,2.31163 1.73371,4.07932 -2e-5,1.77526 -0.57792,3.14259 -1.73371,4.10198 -1.14827,0.95184 -2.79888,1.42776 -4.95184,1.42776 l -2.87818,0 0,5.86968 -4.3626,0 0,-16.91783 m 4.3626,3.16147 0,4.72521 2.4136,0 c 0.84607,1e-5 1.49951,-0.20396 1.96033,-0.6119 0.4608,-0.41548 0.69121,-1.00093 0.69122,-1.75637 -10e-6,-0.75542 -0.23042,-1.3371 -0.69122,-1.74504 -0.46082,-0.40792 -1.11426,-0.61189 -1.96033,-0.6119 l -2.4136,0"
         id="path2987"
         inkscape:connector-curvature="0"
         style="fill:#eecc22;fill-opacity:1" />
      <path
         d="m 519.04379,549.46589 0,3.58073 c -0.92919,-0.41547 -1.83571,-0.72897 -2.71954,-0.94051 -0.88387,-0.2115 -1.71861,-0.31726 -2.50425,-0.31728 -1.0425,2e-5 -1.81304,0.14355 -2.31161,0.4306 -0.49859,0.28707 -0.74788,0.73278 -0.74788,1.33711 0,0.45326 0.16619,0.80832 0.49859,1.06515 0.33993,0.2493 0.95183,0.4646 1.83569,0.64589 l 1.85835,0.37394 c 1.88101,0.37772 3.21812,0.95185 4.01133,1.72238 0.79318,0.77054 1.18978,1.86591 1.1898,3.28611 -2e-5,1.86591 -0.55526,3.2559 -1.66572,4.16997 -1.10294,0.90651 -2.79132,1.35977 -5.06515,1.35977 -1.07272,0 -2.1492,-0.10199 -3.22946,-0.30595 -1.08026,-0.20397 -2.16053,-0.50614 -3.24079,-0.90652 l 0,-3.68271 c 1.08026,0.57413 2.12275,1.0085 3.12748,1.30311 1.01227,0.28707 1.98677,0.4306 2.92351,0.4306 0.95183,0 1.68082,-0.15864 2.18696,-0.47592 0.50613,-0.31728 0.7592,-0.77054 0.75921,-1.35977 -10e-6,-0.5288 -0.17376,-0.93673 -0.52125,-1.2238 -0.33995,-0.28705 -1.02361,-0.5439 -2.05099,-0.77053 l -1.68838,-0.37394 c -1.69216,-0.3626 -2.93107,-0.9405 -3.71671,-1.73371 -0.77809,-0.79319 -1.16714,-1.86212 -1.16713,-3.20679 -1e-5,-1.6846 0.5439,-2.98016 1.63172,-3.88669 1.08781,-0.90649 2.65155,-1.35975 4.69121,-1.35977 0.92917,2e-5 1.88479,0.0718 2.86685,0.2153 0.98205,0.13599 1.9981,0.34374 3.04816,0.62323"
         id="path2989"
         inkscape:connector-curvature="0"
         style="fill:#eecc22;fill-opacity:1" />
    </g>
  </g>
</svg>
